<svg xmlns="http://www.w3.org/2000/svg" viewBox="0 0 96 96"><g id="icon"><path d="M23.93,93.75c-6,0-11.12-.55-14.24-3.6C7.46,88,6.38,84.7,6.38,80.13A28.42,28.42,0,0,1,22,54.69.75.75,0,0,1,23,55a.76.76,0,0,1-.32,1,26.93,26.93,0,0,0-14.8,24.1c0,4.14.93,7.07,2.85,9,3.52,3.43,10.35,3.27,18.24,3.09,3.83-.09,8.05-.09,11.88,0,7.9.18,14.71.34,18.23-3.09,1.92-1.88,2.86-4.81,2.86-9A26.93,26.93,0,0,0,47.14,56a.75.75,0,1,1,.68-1.34A28.45,28.45,0,0,1,63.44,80.13c0,4.57-1.09,7.85-3.31,10-4,3.88-11.08,3.71-19.32,3.52-3.81-.09-8-.09-11.81,0C27.26,93.71,25.56,93.75,23.93,93.75Z"/><path d="M34.91,63.79C25,63.79,16.46,51,16.46,40.5a18.45,18.45,0,0,1,36.9,0C53.36,51,44.85,63.79,34.91,63.79Zm0-40.24A17,17,0,0,0,18,40.5c0,9.81,7.82,21.79,16.95,21.79s17-12,17-21.79A17,17,0,0,0,34.91,23.55Z"/><path d="M56.35,54.84H43.13a.75.75,0,1,1,0-1.5H56.35a5,5,0,0,0,5-5v-4.7a.75.75,0,0,1,1.5,0v4.7A6.47,6.47,0,0,1,56.35,54.84Z"/><path d="M40.23,57.75H36.49a3.66,3.66,0,1,1,0-7.31h3.74a3.66,3.66,0,0,1,0,7.31Zm-3.74-5.81a2.16,2.16,0,1,0,0,4.31h3.74a2.16,2.16,0,0,0,0-4.31Z"/><path d="M18.81,49.49H16a5.32,5.32,0,0,1-5.32-5.32V36.24A5.33,5.33,0,0,1,16,30.91h3.58a.75.75,0,0,1,0,1.5H16a3.83,3.83,0,0,0-3.82,3.83v7.93A3.82,3.82,0,0,0,16,48h2.82a.75.75,0,0,1,0,1.5Z"/><path d="M11.45,45.48h-.79a5.28,5.28,0,1,1,0-10.55h.79a.75.75,0,0,1,0,1.5h-.79a3.78,3.78,0,1,0,0,7.55h.79a.75.75,0,0,1,0,1.5Z"/><path d="M58.38,36.43a.75.75,0,0,1-.75-.75v-.31a22.72,22.72,0,1,0-45.43.31.75.75,0,0,1-1.5,0,24.22,24.22,0,1,1,48.43-.31v.31A.76.76,0,0,1,58.38,36.43Z"/><path d="M53.84,49.49H51A.75.75,0,0,1,51,48h2.82a3.82,3.82,0,0,0,3.82-3.82V36.24a3.83,3.83,0,0,0-3.82-3.83H50.26a.75.75,0,0,1,0-1.5h3.58a5.33,5.33,0,0,1,5.32,5.33v7.93A5.32,5.32,0,0,1,53.84,49.49Z"/><path d="M59.17,45.48h-.79a.75.75,0,0,1,0-1.5h.79a3.78,3.78,0,1,0,0-7.55h-.79a.75.75,0,0,1,0-1.5h.79a5.28,5.28,0,1,1,0,10.55Z"/><path d="M62.48,27.26a2.19,2.19,0,0,1-2.17-2.18V5.29a3,3,0,0,1,3-3H87.58a3,3,0,0,1,3,3V19.86a3,3,0,0,1-3,3H68.89l-5.24,4-.09.06A2.21,2.21,0,0,1,62.48,27.26Zm.86-23.51a1.54,1.54,0,0,0-1.53,1.54V25.08a.66.66,0,0,0,.33.58.65.65,0,0,0,.64,0l5.4-4.13a.75.75,0,0,1,.45-.16h19a1.54,1.54,0,0,0,1.54-1.53V5.29a1.54,1.54,0,0,0-1.54-1.54Z"/><path d="M73.79,16.19a.75.75,0,0,1-.56-.25l-2.46-2.76a.75.75,0,0,1,.06-1.06.73.73,0,0,1,1,.06l2,2.23,6-4.8A.76.76,0,0,1,81,9.74a.75.75,0,0,1-.13,1L74.25,16A.75.75,0,0,1,73.79,16.19Z"/></g></svg>